<mxfile host="Electron" agent="Mozilla/5.0 (Windows NT 10.0; Win64; x64) AppleWebKit/537.36 (KHTML, like Gecko) draw.io/26.1.1 Chrome/132.0.6834.210 Electron/34.3.3 Safari/537.36" version="26.1.1">
  <diagram name="Page-1" id="ISlPZ9czA1P53aF_u-li">
    <mxGraphModel dx="3176" dy="3213" grid="1" gridSize="10" guides="1" tooltips="1" connect="1" arrows="1" fold="1" page="1" pageScale="1" pageWidth="827" pageHeight="1169" math="0" shadow="0">
      <root>
        <mxCell id="0" />
        <mxCell id="1" parent="0" />
        <mxCell id="ctU_p67GkgNmKsGkajiW-1" value="" style="shape=folder;fontStyle=1;spacingTop=10;tabWidth=160;tabHeight=20;tabPosition=left;html=1;whiteSpace=wrap;" vertex="1" parent="1">
          <mxGeometry x="20" y="-10" width="610" height="580" as="geometry" />
        </mxCell>
        <mxCell id="ctU_p67GkgNmKsGkajiW-3" value="Order Views Layer" style="text;align=center;fontStyle=1;verticalAlign=middle;spacingLeft=3;spacingRight=3;rotatable=0;points=[[0,0.5],[1,0.5]];portConstraint=eastwest;html=1;" vertex="1" parent="1">
          <mxGeometry x="40" y="-10" width="120" height="20" as="geometry" />
        </mxCell>
        <mxCell id="ctU_p67GkgNmKsGkajiW-4" value="OrderListCreateView" style="swimlane;fontStyle=0;childLayout=stackLayout;horizontal=1;startSize=26;fillColor=#1ba1e2;horizontalStack=0;resizeParent=1;resizeParentMax=0;resizeLast=0;collapsible=1;marginBottom=0;whiteSpace=wrap;html=1;fontColor=#ffffff;strokeColor=#006EAF;" vertex="1" parent="1">
          <mxGeometry x="202" y="40" width="140" height="78" as="geometry" />
        </mxCell>
        <mxCell id="ctU_p67GkgNmKsGkajiW-5" value="+get()" style="text;strokeColor=none;fillColor=none;align=left;verticalAlign=top;spacingLeft=4;spacingRight=4;overflow=hidden;rotatable=0;points=[[0,0.5],[1,0.5]];portConstraint=eastwest;whiteSpace=wrap;html=1;" vertex="1" parent="ctU_p67GkgNmKsGkajiW-4">
          <mxGeometry y="26" width="140" height="26" as="geometry" />
        </mxCell>
        <mxCell id="ctU_p67GkgNmKsGkajiW-6" value="+post()" style="text;strokeColor=none;fillColor=none;align=left;verticalAlign=top;spacingLeft=4;spacingRight=4;overflow=hidden;rotatable=0;points=[[0,0.5],[1,0.5]];portConstraint=eastwest;whiteSpace=wrap;html=1;" vertex="1" parent="ctU_p67GkgNmKsGkajiW-4">
          <mxGeometry y="52" width="140" height="26" as="geometry" />
        </mxCell>
        <mxCell id="ctU_p67GkgNmKsGkajiW-8" value="OrderDetailView" style="swimlane;fontStyle=0;childLayout=stackLayout;horizontal=1;startSize=26;fillColor=#1ba1e2;horizontalStack=0;resizeParent=1;resizeParentMax=0;resizeLast=0;collapsible=1;marginBottom=0;whiteSpace=wrap;html=1;fontColor=#ffffff;strokeColor=#006EAF;" vertex="1" parent="1">
          <mxGeometry x="455" y="148" width="140" height="104" as="geometry" />
        </mxCell>
        <mxCell id="ctU_p67GkgNmKsGkajiW-9" value="+get()" style="text;strokeColor=none;fillColor=none;align=left;verticalAlign=top;spacingLeft=4;spacingRight=4;overflow=hidden;rotatable=0;points=[[0,0.5],[1,0.5]];portConstraint=eastwest;whiteSpace=wrap;html=1;" vertex="1" parent="ctU_p67GkgNmKsGkajiW-8">
          <mxGeometry y="26" width="140" height="26" as="geometry" />
        </mxCell>
        <mxCell id="ctU_p67GkgNmKsGkajiW-10" value="+put()" style="text;strokeColor=none;fillColor=none;align=left;verticalAlign=top;spacingLeft=4;spacingRight=4;overflow=hidden;rotatable=0;points=[[0,0.5],[1,0.5]];portConstraint=eastwest;whiteSpace=wrap;html=1;" vertex="1" parent="ctU_p67GkgNmKsGkajiW-8">
          <mxGeometry y="52" width="140" height="26" as="geometry" />
        </mxCell>
        <mxCell id="ctU_p67GkgNmKsGkajiW-11" value="+delete()" style="text;strokeColor=none;fillColor=none;align=left;verticalAlign=top;spacingLeft=4;spacingRight=4;overflow=hidden;rotatable=0;points=[[0,0.5],[1,0.5]];portConstraint=eastwest;whiteSpace=wrap;html=1;" vertex="1" parent="ctU_p67GkgNmKsGkajiW-8">
          <mxGeometry y="78" width="140" height="26" as="geometry" />
        </mxCell>
        <mxCell id="ctU_p67GkgNmKsGkajiW-52" style="edgeStyle=orthogonalEdgeStyle;rounded=0;orthogonalLoop=1;jettySize=auto;html=1;entryX=0;entryY=0.5;entryDx=0;entryDy=0;" edge="1" parent="1" source="ctU_p67GkgNmKsGkajiW-18" target="ctU_p67GkgNmKsGkajiW-23">
          <mxGeometry relative="1" as="geometry" />
        </mxCell>
        <mxCell id="ctU_p67GkgNmKsGkajiW-18" value="FinalizeOrderView" style="swimlane;fontStyle=0;childLayout=stackLayout;horizontal=1;startSize=26;fillColor=#1ba1e2;horizontalStack=0;resizeParent=1;resizeParentMax=0;resizeLast=0;collapsible=1;marginBottom=0;whiteSpace=wrap;html=1;fontColor=#ffffff;strokeColor=#006EAF;" vertex="1" parent="1">
          <mxGeometry x="35" y="53" width="140" height="52" as="geometry" />
        </mxCell>
        <mxCell id="ctU_p67GkgNmKsGkajiW-19" value="+post()" style="text;strokeColor=none;fillColor=none;align=left;verticalAlign=top;spacingLeft=4;spacingRight=4;overflow=hidden;rotatable=0;points=[[0,0.5],[1,0.5]];portConstraint=eastwest;whiteSpace=wrap;html=1;" vertex="1" parent="ctU_p67GkgNmKsGkajiW-18">
          <mxGeometry y="26" width="140" height="26" as="geometry" />
        </mxCell>
        <mxCell id="ctU_p67GkgNmKsGkajiW-20" value="PurchaseOrderView" style="swimlane;fontStyle=0;childLayout=stackLayout;horizontal=1;startSize=26;fillColor=#1ba1e2;horizontalStack=0;resizeParent=1;resizeParentMax=0;resizeLast=0;collapsible=1;marginBottom=0;whiteSpace=wrap;html=1;fontColor=#ffffff;strokeColor=#006EAF;" vertex="1" parent="1">
          <mxGeometry x="385" y="46" width="140" height="52" as="geometry" />
        </mxCell>
        <mxCell id="ctU_p67GkgNmKsGkajiW-21" value="+post()" style="text;strokeColor=none;fillColor=none;align=left;verticalAlign=top;spacingLeft=4;spacingRight=4;overflow=hidden;rotatable=0;points=[[0,0.5],[1,0.5]];portConstraint=eastwest;whiteSpace=wrap;html=1;" vertex="1" parent="ctU_p67GkgNmKsGkajiW-20">
          <mxGeometry y="26" width="140" height="26" as="geometry" />
        </mxCell>
        <mxCell id="ctU_p67GkgNmKsGkajiW-54" style="edgeStyle=orthogonalEdgeStyle;rounded=0;orthogonalLoop=1;jettySize=auto;html=1;entryX=0.25;entryY=0;entryDx=0;entryDy=0;" edge="1" parent="1" source="ctU_p67GkgNmKsGkajiW-22" target="ctU_p67GkgNmKsGkajiW-29">
          <mxGeometry relative="1" as="geometry" />
        </mxCell>
        <mxCell id="ctU_p67GkgNmKsGkajiW-22" value="OrderManagerSingleton" style="swimlane;fontStyle=0;childLayout=stackLayout;horizontal=1;startSize=26;fillColor=#1ba1e2;horizontalStack=0;resizeParent=1;resizeParentMax=0;resizeLast=0;collapsible=1;marginBottom=0;whiteSpace=wrap;html=1;fontColor=#ffffff;strokeColor=#006EAF;" vertex="1" parent="1">
          <mxGeometry x="195" y="158" width="180" height="182" as="geometry" />
        </mxCell>
        <mxCell id="ctU_p67GkgNmKsGkajiW-23" value="+create_order()" style="text;strokeColor=none;fillColor=none;align=left;verticalAlign=top;spacingLeft=4;spacingRight=4;overflow=hidden;rotatable=0;points=[[0,0.5],[1,0.5]];portConstraint=eastwest;whiteSpace=wrap;html=1;" vertex="1" parent="ctU_p67GkgNmKsGkajiW-22">
          <mxGeometry y="26" width="180" height="26" as="geometry" />
        </mxCell>
        <mxCell id="ctU_p67GkgNmKsGkajiW-24" value="+get_order_by_id()" style="text;strokeColor=none;fillColor=none;align=left;verticalAlign=top;spacingLeft=4;spacingRight=4;overflow=hidden;rotatable=0;points=[[0,0.5],[1,0.5]];portConstraint=eastwest;whiteSpace=wrap;html=1;" vertex="1" parent="ctU_p67GkgNmKsGkajiW-22">
          <mxGeometry y="52" width="180" height="26" as="geometry" />
        </mxCell>
        <mxCell id="ctU_p67GkgNmKsGkajiW-25" value="+update_order()" style="text;strokeColor=none;fillColor=none;align=left;verticalAlign=top;spacingLeft=4;spacingRight=4;overflow=hidden;rotatable=0;points=[[0,0.5],[1,0.5]];portConstraint=eastwest;whiteSpace=wrap;html=1;" vertex="1" parent="ctU_p67GkgNmKsGkajiW-22">
          <mxGeometry y="78" width="180" height="26" as="geometry" />
        </mxCell>
        <mxCell id="ctU_p67GkgNmKsGkajiW-26" value="+delete_order()" style="text;strokeColor=none;fillColor=none;align=left;verticalAlign=top;spacingLeft=4;spacingRight=4;overflow=hidden;rotatable=0;points=[[0,0.5],[1,0.5]];portConstraint=eastwest;whiteSpace=wrap;html=1;" vertex="1" parent="ctU_p67GkgNmKsGkajiW-22">
          <mxGeometry y="104" width="180" height="26" as="geometry" />
        </mxCell>
        <mxCell id="ctU_p67GkgNmKsGkajiW-27" value="+finalize_order()" style="text;strokeColor=none;fillColor=none;align=left;verticalAlign=top;spacingLeft=4;spacingRight=4;overflow=hidden;rotatable=0;points=[[0,0.5],[1,0.5]];portConstraint=eastwest;whiteSpace=wrap;html=1;" vertex="1" parent="ctU_p67GkgNmKsGkajiW-22">
          <mxGeometry y="130" width="180" height="26" as="geometry" />
        </mxCell>
        <mxCell id="ctU_p67GkgNmKsGkajiW-28" value="+get_or_create_active_order()" style="text;strokeColor=none;fillColor=none;align=left;verticalAlign=top;spacingLeft=4;spacingRight=4;overflow=hidden;rotatable=0;points=[[0,0.5],[1,0.5]];portConstraint=eastwest;whiteSpace=wrap;html=1;" vertex="1" parent="ctU_p67GkgNmKsGkajiW-22">
          <mxGeometry y="156" width="180" height="26" as="geometry" />
        </mxCell>
        <mxCell id="ctU_p67GkgNmKsGkajiW-61" style="edgeStyle=orthogonalEdgeStyle;rounded=0;orthogonalLoop=1;jettySize=auto;html=1;entryX=0;entryY=0.25;entryDx=0;entryDy=0;" edge="1" parent="1" source="ctU_p67GkgNmKsGkajiW-29" target="ctU_p67GkgNmKsGkajiW-31">
          <mxGeometry relative="1" as="geometry" />
        </mxCell>
        <mxCell id="ctU_p67GkgNmKsGkajiW-29" value="OrderFactory" style="swimlane;fontStyle=0;childLayout=stackLayout;horizontal=1;startSize=26;fillColor=#1ba1e2;horizontalStack=0;resizeParent=1;resizeParentMax=0;resizeLast=0;collapsible=1;marginBottom=0;whiteSpace=wrap;html=1;fontColor=#ffffff;strokeColor=#006EAF;" vertex="1" parent="1">
          <mxGeometry x="202" y="418" width="140" height="80" as="geometry" />
        </mxCell>
        <mxCell id="ctU_p67GkgNmKsGkajiW-30" value="+ create_order(user, status, shipping_address)" style="text;strokeColor=none;fillColor=none;align=left;verticalAlign=top;spacingLeft=4;spacingRight=4;overflow=hidden;rotatable=0;points=[[0,0.5],[1,0.5]];portConstraint=eastwest;whiteSpace=wrap;html=1;" vertex="1" parent="ctU_p67GkgNmKsGkajiW-29">
          <mxGeometry y="26" width="140" height="54" as="geometry" />
        </mxCell>
        <mxCell id="ctU_p67GkgNmKsGkajiW-31" value="Order" style="swimlane;fontStyle=0;childLayout=stackLayout;horizontal=1;startSize=26;fillColor=#1ba1e2;horizontalStack=0;resizeParent=1;resizeParentMax=0;resizeLast=0;collapsible=1;marginBottom=0;whiteSpace=wrap;html=1;fontColor=#ffffff;strokeColor=#006EAF;" vertex="1" parent="1">
          <mxGeometry x="415" y="428" width="140" height="98" as="geometry" />
        </mxCell>
        <mxCell id="ctU_p67GkgNmKsGkajiW-32" value="OrderItem" style="text;strokeColor=none;fillColor=none;align=left;verticalAlign=top;spacingLeft=4;spacingRight=4;overflow=hidden;rotatable=0;points=[[0,0.5],[1,0.5]];portConstraint=eastwest;whiteSpace=wrap;html=1;" vertex="1" parent="ctU_p67GkgNmKsGkajiW-31">
          <mxGeometry y="26" width="140" height="24" as="geometry" />
        </mxCell>
        <mxCell id="ctU_p67GkgNmKsGkajiW-33" value="Status" style="text;strokeColor=none;fillColor=none;align=left;verticalAlign=top;spacingLeft=4;spacingRight=4;overflow=hidden;rotatable=0;points=[[0,0.5],[1,0.5]];portConstraint=eastwest;whiteSpace=wrap;html=1;" vertex="1" parent="ctU_p67GkgNmKsGkajiW-31">
          <mxGeometry y="50" width="140" height="24" as="geometry" />
        </mxCell>
        <mxCell id="ctU_p67GkgNmKsGkajiW-34" value="total_price" style="text;strokeColor=none;fillColor=none;align=left;verticalAlign=top;spacingLeft=4;spacingRight=4;overflow=hidden;rotatable=0;points=[[0,0.5],[1,0.5]];portConstraint=eastwest;whiteSpace=wrap;html=1;" vertex="1" parent="ctU_p67GkgNmKsGkajiW-31">
          <mxGeometry y="74" width="140" height="24" as="geometry" />
        </mxCell>
        <mxCell id="ctU_p67GkgNmKsGkajiW-50" style="edgeStyle=orthogonalEdgeStyle;rounded=0;orthogonalLoop=1;jettySize=auto;html=1;entryX=0.58;entryY=0.016;entryDx=0;entryDy=0;entryPerimeter=0;" edge="1" parent="1" source="ctU_p67GkgNmKsGkajiW-4" target="ctU_p67GkgNmKsGkajiW-22">
          <mxGeometry relative="1" as="geometry" />
        </mxCell>
        <mxCell id="ctU_p67GkgNmKsGkajiW-51" style="edgeStyle=orthogonalEdgeStyle;rounded=0;orthogonalLoop=1;jettySize=auto;html=1;entryX=0.869;entryY=0.024;entryDx=0;entryDy=0;entryPerimeter=0;" edge="1" parent="1" source="ctU_p67GkgNmKsGkajiW-20" target="ctU_p67GkgNmKsGkajiW-22">
          <mxGeometry relative="1" as="geometry" />
        </mxCell>
        <mxCell id="ctU_p67GkgNmKsGkajiW-53" style="edgeStyle=orthogonalEdgeStyle;rounded=0;orthogonalLoop=1;jettySize=auto;html=1;entryX=0.991;entryY=0.057;entryDx=0;entryDy=0;entryPerimeter=0;" edge="1" parent="1" source="ctU_p67GkgNmKsGkajiW-8" target="ctU_p67GkgNmKsGkajiW-22">
          <mxGeometry relative="1" as="geometry" />
        </mxCell>
        <mxCell id="ctU_p67GkgNmKsGkajiW-55" value="«uses»" style="text;html=1;align=center;verticalAlign=middle;whiteSpace=wrap;rounded=0;" vertex="1" parent="1">
          <mxGeometry x="282" y="118" width="60" height="30" as="geometry" />
        </mxCell>
        <mxCell id="ctU_p67GkgNmKsGkajiW-57" value="«uses»" style="text;html=1;align=center;verticalAlign=middle;whiteSpace=wrap;rounded=0;" vertex="1" parent="1">
          <mxGeometry x="105" y="138" width="60" height="30" as="geometry" />
        </mxCell>
        <mxCell id="ctU_p67GkgNmKsGkajiW-58" value="«uses»" style="text;html=1;align=center;verticalAlign=middle;whiteSpace=wrap;rounded=0;" vertex="1" parent="1">
          <mxGeometry x="342" y="118" width="60" height="30" as="geometry" />
        </mxCell>
        <mxCell id="ctU_p67GkgNmKsGkajiW-59" value="«uses»" style="text;html=1;align=center;verticalAlign=middle;whiteSpace=wrap;rounded=0;" vertex="1" parent="1">
          <mxGeometry x="395" y="208" width="60" height="30" as="geometry" />
        </mxCell>
        <mxCell id="ctU_p67GkgNmKsGkajiW-60" value="«uses»" style="text;html=1;align=center;verticalAlign=middle;whiteSpace=wrap;rounded=0;" vertex="1" parent="1">
          <mxGeometry x="282" y="346" width="60" height="30" as="geometry" />
        </mxCell>
        <mxCell id="ctU_p67GkgNmKsGkajiW-62" value="«creates»" style="text;html=1;align=center;verticalAlign=middle;whiteSpace=wrap;rounded=0;" vertex="1" parent="1">
          <mxGeometry x="342" y="419" width="60" height="30" as="geometry" />
        </mxCell>
        <mxCell id="ctU_p67GkgNmKsGkajiW-73" value="" style="shape=folder;fontStyle=1;spacingTop=10;tabWidth=160;tabHeight=20;tabPosition=left;html=1;whiteSpace=wrap;" vertex="1" parent="1">
          <mxGeometry x="50" y="-600" width="540" height="570" as="geometry" />
        </mxCell>
        <mxCell id="ctU_p67GkgNmKsGkajiW-74" value="OrderItem Views Layer" style="text;align=center;fontStyle=1;verticalAlign=middle;spacingLeft=3;spacingRight=3;rotatable=0;points=[[0,0.5],[1,0.5]];portConstraint=eastwest;html=1;" vertex="1" parent="1">
          <mxGeometry x="65" y="-596" width="120" height="20" as="geometry" />
        </mxCell>
        <mxCell id="ctU_p67GkgNmKsGkajiW-12" value="AddToOrderView" style="swimlane;fontStyle=0;childLayout=stackLayout;horizontal=1;startSize=26;fillColor=#1ba1e2;horizontalStack=0;resizeParent=1;resizeParentMax=0;resizeLast=0;collapsible=1;marginBottom=0;whiteSpace=wrap;html=1;fontColor=#ffffff;strokeColor=#006EAF;" vertex="1" parent="1">
          <mxGeometry x="82" y="-514" width="140" height="52" as="geometry" />
        </mxCell>
        <mxCell id="ctU_p67GkgNmKsGkajiW-13" value="+post()" style="text;strokeColor=none;fillColor=none;align=left;verticalAlign=top;spacingLeft=4;spacingRight=4;overflow=hidden;rotatable=0;points=[[0,0.5],[1,0.5]];portConstraint=eastwest;whiteSpace=wrap;html=1;" vertex="1" parent="ctU_p67GkgNmKsGkajiW-12">
          <mxGeometry y="26" width="140" height="26" as="geometry" />
        </mxCell>
        <mxCell id="ctU_p67GkgNmKsGkajiW-16" value="RemoveFromOrderView" style="swimlane;fontStyle=0;childLayout=stackLayout;horizontal=1;startSize=26;fillColor=#1ba1e2;horizontalStack=0;resizeParent=1;resizeParentMax=0;resizeLast=0;collapsible=1;marginBottom=0;whiteSpace=wrap;html=1;fontColor=#ffffff;strokeColor=#006EAF;" vertex="1" parent="1">
          <mxGeometry x="82" y="-384" width="140" height="52" as="geometry" />
        </mxCell>
        <mxCell id="ctU_p67GkgNmKsGkajiW-17" value="+post()" style="text;strokeColor=none;fillColor=none;align=left;verticalAlign=top;spacingLeft=4;spacingRight=4;overflow=hidden;rotatable=0;points=[[0,0.5],[1,0.5]];portConstraint=eastwest;whiteSpace=wrap;html=1;" vertex="1" parent="ctU_p67GkgNmKsGkajiW-16">
          <mxGeometry y="26" width="140" height="26" as="geometry" />
        </mxCell>
        <mxCell id="ctU_p67GkgNmKsGkajiW-35" value="OrderItemManagerSingleton" style="swimlane;fontStyle=0;childLayout=stackLayout;horizontal=1;startSize=26;fillColor=#1ba1e2;horizontalStack=0;resizeParent=1;resizeParentMax=0;resizeLast=0;collapsible=1;marginBottom=0;whiteSpace=wrap;html=1;fontColor=#ffffff;strokeColor=#006EAF;" vertex="1" parent="1">
          <mxGeometry x="262" y="-446" width="180" height="130" as="geometry" />
        </mxCell>
        <mxCell id="ctU_p67GkgNmKsGkajiW-36" value="+create_order_item()" style="text;strokeColor=none;fillColor=none;align=left;verticalAlign=top;spacingLeft=4;spacingRight=4;overflow=hidden;rotatable=0;points=[[0,0.5],[1,0.5]];portConstraint=eastwest;whiteSpace=wrap;html=1;" vertex="1" parent="ctU_p67GkgNmKsGkajiW-35">
          <mxGeometry y="26" width="180" height="26" as="geometry" />
        </mxCell>
        <mxCell id="ctU_p67GkgNmKsGkajiW-37" value="&lt;div&gt;+get_order_item_by_id()&lt;/div&gt;&lt;div&gt;&lt;br&gt;&lt;/div&gt;" style="text;strokeColor=none;fillColor=none;align=left;verticalAlign=top;spacingLeft=4;spacingRight=4;overflow=hidden;rotatable=0;points=[[0,0.5],[1,0.5]];portConstraint=eastwest;whiteSpace=wrap;html=1;" vertex="1" parent="ctU_p67GkgNmKsGkajiW-35">
          <mxGeometry y="52" width="180" height="26" as="geometry" />
        </mxCell>
        <mxCell id="ctU_p67GkgNmKsGkajiW-38" value="+update_order_item()" style="text;strokeColor=none;fillColor=none;align=left;verticalAlign=top;spacingLeft=4;spacingRight=4;overflow=hidden;rotatable=0;points=[[0,0.5],[1,0.5]];portConstraint=eastwest;whiteSpace=wrap;html=1;" vertex="1" parent="ctU_p67GkgNmKsGkajiW-35">
          <mxGeometry y="78" width="180" height="26" as="geometry" />
        </mxCell>
        <mxCell id="ctU_p67GkgNmKsGkajiW-39" value="+delete_order_item()" style="text;strokeColor=none;fillColor=none;align=left;verticalAlign=top;spacingLeft=4;spacingRight=4;overflow=hidden;rotatable=0;points=[[0,0.5],[1,0.5]];portConstraint=eastwest;whiteSpace=wrap;html=1;" vertex="1" parent="ctU_p67GkgNmKsGkajiW-35">
          <mxGeometry y="104" width="180" height="26" as="geometry" />
        </mxCell>
        <mxCell id="ctU_p67GkgNmKsGkajiW-42" value="OrderItemFactory" style="swimlane;fontStyle=0;childLayout=stackLayout;horizontal=1;startSize=26;fillColor=#1ba1e2;horizontalStack=0;resizeParent=1;resizeParentMax=0;resizeLast=0;collapsible=1;marginBottom=0;whiteSpace=wrap;html=1;fontColor=#ffffff;strokeColor=#006EAF;" vertex="1" parent="1">
          <mxGeometry x="182" y="-225" width="150" height="70" as="geometry" />
        </mxCell>
        <mxCell id="ctU_p67GkgNmKsGkajiW-43" value="&lt;div&gt;+create_order_item(order, shoe, quantity, price)&lt;/div&gt;&lt;div&gt;&lt;br&gt;&lt;/div&gt;" style="text;strokeColor=none;fillColor=none;align=left;verticalAlign=top;spacingLeft=4;spacingRight=4;overflow=hidden;rotatable=0;points=[[0,0.5],[1,0.5]];portConstraint=eastwest;whiteSpace=wrap;html=1;" vertex="1" parent="ctU_p67GkgNmKsGkajiW-42">
          <mxGeometry y="26" width="150" height="44" as="geometry" />
        </mxCell>
        <mxCell id="ctU_p67GkgNmKsGkajiW-44" value="OrderItem" style="swimlane;fontStyle=0;childLayout=stackLayout;horizontal=1;startSize=26;fillColor=#1ba1e2;horizontalStack=0;resizeParent=1;resizeParentMax=0;resizeLast=0;collapsible=1;marginBottom=0;whiteSpace=wrap;html=1;fontColor=#ffffff;strokeColor=#006EAF;" vertex="1" parent="1">
          <mxGeometry x="417" y="-196" width="140" height="122" as="geometry" />
        </mxCell>
        <mxCell id="ctU_p67GkgNmKsGkajiW-45" value="Order" style="text;strokeColor=none;fillColor=none;align=left;verticalAlign=top;spacingLeft=4;spacingRight=4;overflow=hidden;rotatable=0;points=[[0,0.5],[1,0.5]];portConstraint=eastwest;whiteSpace=wrap;html=1;" vertex="1" parent="ctU_p67GkgNmKsGkajiW-44">
          <mxGeometry y="26" width="140" height="24" as="geometry" />
        </mxCell>
        <mxCell id="ctU_p67GkgNmKsGkajiW-46" value="Shoe" style="text;strokeColor=none;fillColor=none;align=left;verticalAlign=top;spacingLeft=4;spacingRight=4;overflow=hidden;rotatable=0;points=[[0,0.5],[1,0.5]];portConstraint=eastwest;whiteSpace=wrap;html=1;" vertex="1" parent="ctU_p67GkgNmKsGkajiW-44">
          <mxGeometry y="50" width="140" height="24" as="geometry" />
        </mxCell>
        <mxCell id="ctU_p67GkgNmKsGkajiW-47" value="quantity" style="text;strokeColor=none;fillColor=none;align=left;verticalAlign=top;spacingLeft=4;spacingRight=4;overflow=hidden;rotatable=0;points=[[0,0.5],[1,0.5]];portConstraint=eastwest;whiteSpace=wrap;html=1;" vertex="1" parent="ctU_p67GkgNmKsGkajiW-44">
          <mxGeometry y="74" width="140" height="24" as="geometry" />
        </mxCell>
        <mxCell id="ctU_p67GkgNmKsGkajiW-48" value="price" style="text;strokeColor=none;fillColor=none;align=left;verticalAlign=top;spacingLeft=4;spacingRight=4;overflow=hidden;rotatable=0;points=[[0,0.5],[1,0.5]];portConstraint=eastwest;whiteSpace=wrap;html=1;" vertex="1" parent="ctU_p67GkgNmKsGkajiW-44">
          <mxGeometry y="98" width="140" height="24" as="geometry" />
        </mxCell>
        <mxCell id="ctU_p67GkgNmKsGkajiW-63" style="edgeStyle=orthogonalEdgeStyle;rounded=0;orthogonalLoop=1;jettySize=auto;html=1;entryX=0.107;entryY=-0.013;entryDx=0;entryDy=0;entryPerimeter=0;" edge="1" parent="1" source="ctU_p67GkgNmKsGkajiW-12" target="ctU_p67GkgNmKsGkajiW-35">
          <mxGeometry relative="1" as="geometry" />
        </mxCell>
        <mxCell id="ctU_p67GkgNmKsGkajiW-64" value="«uses»" style="text;html=1;align=center;verticalAlign=middle;whiteSpace=wrap;rounded=0;" vertex="1" parent="1">
          <mxGeometry x="222" y="-520" width="60" height="30" as="geometry" />
        </mxCell>
        <mxCell id="ctU_p67GkgNmKsGkajiW-65" style="edgeStyle=orthogonalEdgeStyle;rounded=0;orthogonalLoop=1;jettySize=auto;html=1;entryX=-0.004;entryY=0.136;entryDx=0;entryDy=0;entryPerimeter=0;" edge="1" parent="1" source="ctU_p67GkgNmKsGkajiW-16" target="ctU_p67GkgNmKsGkajiW-35">
          <mxGeometry relative="1" as="geometry" />
        </mxCell>
        <mxCell id="ctU_p67GkgNmKsGkajiW-66" value="«uses»" style="text;html=1;align=center;verticalAlign=middle;whiteSpace=wrap;rounded=0;" vertex="1" parent="1">
          <mxGeometry x="182" y="-426" width="60" height="30" as="geometry" />
        </mxCell>
        <mxCell id="ctU_p67GkgNmKsGkajiW-67" style="edgeStyle=orthogonalEdgeStyle;rounded=0;orthogonalLoop=1;jettySize=auto;html=1;exitX=0.403;exitY=0.967;exitDx=0;exitDy=0;exitPerimeter=0;" edge="1" parent="1" source="ctU_p67GkgNmKsGkajiW-39" target="ctU_p67GkgNmKsGkajiW-42">
          <mxGeometry relative="1" as="geometry">
            <mxPoint x="332" y="-285" as="sourcePoint" />
            <Array as="points">
              <mxPoint x="332" y="-317" />
              <mxPoint x="332" y="-285" />
              <mxPoint x="287" y="-285" />
            </Array>
          </mxGeometry>
        </mxCell>
        <mxCell id="ctU_p67GkgNmKsGkajiW-68" value="«uses»" style="text;html=1;align=center;verticalAlign=middle;whiteSpace=wrap;rounded=0;" vertex="1" parent="1">
          <mxGeometry x="202" y="-290" width="60" height="30" as="geometry" />
        </mxCell>
        <mxCell id="ctU_p67GkgNmKsGkajiW-69" value="«creates»" style="text;html=1;align=center;verticalAlign=middle;whiteSpace=wrap;rounded=0;" vertex="1" parent="1">
          <mxGeometry x="354" y="-210" width="60" height="30" as="geometry" />
        </mxCell>
        <mxCell id="ctU_p67GkgNmKsGkajiW-72" style="edgeStyle=orthogonalEdgeStyle;rounded=0;orthogonalLoop=1;jettySize=auto;html=1;entryX=0;entryY=0.5;entryDx=0;entryDy=0;" edge="1" parent="1" source="ctU_p67GkgNmKsGkajiW-43" target="ctU_p67GkgNmKsGkajiW-45">
          <mxGeometry relative="1" as="geometry" />
        </mxCell>
        <mxCell id="ctU_p67GkgNmKsGkajiW-106" value="" style="shape=folder;fontStyle=1;spacingTop=10;tabWidth=160;tabHeight=20;tabPosition=left;html=1;whiteSpace=wrap;" vertex="1" parent="1">
          <mxGeometry x="680" y="33" width="620" height="510" as="geometry" />
        </mxCell>
        <mxCell id="ctU_p67GkgNmKsGkajiW-107" value="Payment Views Layer" style="text;align=center;fontStyle=1;verticalAlign=middle;spacingLeft=3;spacingRight=3;rotatable=0;points=[[0,0.5],[1,0.5]];portConstraint=eastwest;html=1;" vertex="1" parent="1">
          <mxGeometry x="690" y="37" width="120" height="20" as="geometry" />
        </mxCell>
        <mxCell id="ctU_p67GkgNmKsGkajiW-75" value="PaymentListCreateView" style="swimlane;fontStyle=0;childLayout=stackLayout;horizontal=1;startSize=26;fillColor=#60a917;horizontalStack=0;resizeParent=1;resizeParentMax=0;resizeLast=0;collapsible=1;marginBottom=0;whiteSpace=wrap;html=1;fontColor=#ffffff;strokeColor=#2D7600;" vertex="1" parent="1">
          <mxGeometry x="840" y="97" width="140" height="78" as="geometry" />
        </mxCell>
        <mxCell id="ctU_p67GkgNmKsGkajiW-76" value="+ get()" style="text;strokeColor=none;fillColor=none;align=left;verticalAlign=top;spacingLeft=4;spacingRight=4;overflow=hidden;rotatable=0;points=[[0,0.5],[1,0.5]];portConstraint=eastwest;whiteSpace=wrap;html=1;" vertex="1" parent="ctU_p67GkgNmKsGkajiW-75">
          <mxGeometry y="26" width="140" height="26" as="geometry" />
        </mxCell>
        <mxCell id="ctU_p67GkgNmKsGkajiW-77" value="+ post()" style="text;strokeColor=none;fillColor=none;align=left;verticalAlign=top;spacingLeft=4;spacingRight=4;overflow=hidden;rotatable=0;points=[[0,0.5],[1,0.5]];portConstraint=eastwest;whiteSpace=wrap;html=1;" vertex="1" parent="ctU_p67GkgNmKsGkajiW-75">
          <mxGeometry y="52" width="140" height="26" as="geometry" />
        </mxCell>
        <mxCell id="ctU_p67GkgNmKsGkajiW-79" value="PaymentDetailView" style="swimlane;fontStyle=0;childLayout=stackLayout;horizontal=1;startSize=26;fillColor=#60a917;horizontalStack=0;resizeParent=1;resizeParentMax=0;resizeLast=0;collapsible=1;marginBottom=0;whiteSpace=wrap;html=1;fontColor=#ffffff;strokeColor=#2D7600;" vertex="1" parent="1">
          <mxGeometry x="690" y="93" width="140" height="104" as="geometry" />
        </mxCell>
        <mxCell id="ctU_p67GkgNmKsGkajiW-80" value="+ get()" style="text;strokeColor=none;fillColor=none;align=left;verticalAlign=top;spacingLeft=4;spacingRight=4;overflow=hidden;rotatable=0;points=[[0,0.5],[1,0.5]];portConstraint=eastwest;whiteSpace=wrap;html=1;" vertex="1" parent="ctU_p67GkgNmKsGkajiW-79">
          <mxGeometry y="26" width="140" height="26" as="geometry" />
        </mxCell>
        <mxCell id="ctU_p67GkgNmKsGkajiW-81" value="+ put()" style="text;strokeColor=none;fillColor=none;align=left;verticalAlign=top;spacingLeft=4;spacingRight=4;overflow=hidden;rotatable=0;points=[[0,0.5],[1,0.5]];portConstraint=eastwest;whiteSpace=wrap;html=1;" vertex="1" parent="ctU_p67GkgNmKsGkajiW-79">
          <mxGeometry y="52" width="140" height="26" as="geometry" />
        </mxCell>
        <mxCell id="ctU_p67GkgNmKsGkajiW-82" value="+ delete()" style="text;strokeColor=none;fillColor=none;align=left;verticalAlign=top;spacingLeft=4;spacingRight=4;overflow=hidden;rotatable=0;points=[[0,0.5],[1,0.5]];portConstraint=eastwest;whiteSpace=wrap;html=1;" vertex="1" parent="ctU_p67GkgNmKsGkajiW-79">
          <mxGeometry y="78" width="140" height="26" as="geometry" />
        </mxCell>
        <mxCell id="ctU_p67GkgNmKsGkajiW-83" value="PaymentAPIView" style="swimlane;fontStyle=0;childLayout=stackLayout;horizontal=1;startSize=26;fillColor=#60a917;horizontalStack=0;resizeParent=1;resizeParentMax=0;resizeLast=0;collapsible=1;marginBottom=0;whiteSpace=wrap;html=1;fontColor=#ffffff;strokeColor=#2D7600;" vertex="1" parent="1">
          <mxGeometry x="990" y="110" width="140" height="52" as="geometry" />
        </mxCell>
        <mxCell id="ctU_p67GkgNmKsGkajiW-85" value="+ post()" style="text;strokeColor=none;fillColor=none;align=left;verticalAlign=top;spacingLeft=4;spacingRight=4;overflow=hidden;rotatable=0;points=[[0,0.5],[1,0.5]];portConstraint=eastwest;whiteSpace=wrap;html=1;" vertex="1" parent="ctU_p67GkgNmKsGkajiW-83">
          <mxGeometry y="26" width="140" height="26" as="geometry" />
        </mxCell>
        <mxCell id="ctU_p67GkgNmKsGkajiW-86" value="PaymentManagerSingleton" style="swimlane;fontStyle=0;childLayout=stackLayout;horizontal=1;startSize=26;fillColor=#60a917;horizontalStack=0;resizeParent=1;resizeParentMax=0;resizeLast=0;collapsible=1;marginBottom=0;whiteSpace=wrap;html=1;fontColor=#ffffff;strokeColor=#2D7600;" vertex="1" parent="1">
          <mxGeometry x="830" y="257" width="200" height="180" as="geometry" />
        </mxCell>
        <mxCell id="ctU_p67GkgNmKsGkajiW-87" value="+ create_payment(order, user, amount, payment_method)" style="text;strokeColor=none;fillColor=none;align=left;verticalAlign=top;spacingLeft=4;spacingRight=4;overflow=hidden;rotatable=0;points=[[0,0.5],[1,0.5]];portConstraint=eastwest;whiteSpace=wrap;html=1;" vertex="1" parent="ctU_p67GkgNmKsGkajiW-86">
          <mxGeometry y="26" width="200" height="44" as="geometry" />
        </mxCell>
        <mxCell id="ctU_p67GkgNmKsGkajiW-88" value="+get_payment_by_id(payment_id)" style="text;strokeColor=none;fillColor=none;align=left;verticalAlign=top;spacingLeft=4;spacingRight=4;overflow=hidden;rotatable=0;points=[[0,0.5],[1,0.5]];portConstraint=eastwest;whiteSpace=wrap;html=1;" vertex="1" parent="ctU_p67GkgNmKsGkajiW-86">
          <mxGeometry y="70" width="200" height="30" as="geometry" />
        </mxCell>
        <mxCell id="ctU_p67GkgNmKsGkajiW-89" value="+ update_payment(payment_id, data)" style="text;strokeColor=none;fillColor=none;align=left;verticalAlign=top;spacingLeft=4;spacingRight=4;overflow=hidden;rotatable=0;points=[[0,0.5],[1,0.5]];portConstraint=eastwest;whiteSpace=wrap;html=1;" vertex="1" parent="ctU_p67GkgNmKsGkajiW-86">
          <mxGeometry y="100" width="200" height="40" as="geometry" />
        </mxCell>
        <mxCell id="ctU_p67GkgNmKsGkajiW-90" value="+ delete_payment(payment_id)" style="text;strokeColor=none;fillColor=none;align=left;verticalAlign=top;spacingLeft=4;spacingRight=4;overflow=hidden;rotatable=0;points=[[0,0.5],[1,0.5]];portConstraint=eastwest;whiteSpace=wrap;html=1;" vertex="1" parent="ctU_p67GkgNmKsGkajiW-86">
          <mxGeometry y="140" width="200" height="40" as="geometry" />
        </mxCell>
        <mxCell id="ctU_p67GkgNmKsGkajiW-99" style="edgeStyle=orthogonalEdgeStyle;rounded=0;orthogonalLoop=1;jettySize=auto;html=1;entryX=0.5;entryY=1;entryDx=0;entryDy=0;" edge="1" parent="1" source="ctU_p67GkgNmKsGkajiW-91" target="ctU_p67GkgNmKsGkajiW-93">
          <mxGeometry relative="1" as="geometry" />
        </mxCell>
        <mxCell id="ctU_p67GkgNmKsGkajiW-91" value="PaymentFactory" style="swimlane;fontStyle=0;childLayout=stackLayout;horizontal=1;startSize=26;fillColor=#60a917;horizontalStack=0;resizeParent=1;resizeParentMax=0;resizeLast=0;collapsible=1;marginBottom=0;whiteSpace=wrap;html=1;fontColor=#ffffff;strokeColor=#2D7600;" vertex="1" parent="1">
          <mxGeometry x="1130" y="415" width="150" height="90" as="geometry" />
        </mxCell>
        <mxCell id="ctU_p67GkgNmKsGkajiW-92" value="+ create_payment(order, user, amount, payment_method, commit=True)" style="text;strokeColor=none;fillColor=none;align=left;verticalAlign=top;spacingLeft=4;spacingRight=4;overflow=hidden;rotatable=0;points=[[0,0.5],[1,0.5]];portConstraint=eastwest;whiteSpace=wrap;html=1;" vertex="1" parent="ctU_p67GkgNmKsGkajiW-91">
          <mxGeometry y="26" width="150" height="64" as="geometry" />
        </mxCell>
        <mxCell id="ctU_p67GkgNmKsGkajiW-93" value="Payment" style="swimlane;fontStyle=0;childLayout=stackLayout;horizontal=1;startSize=26;fillColor=#60a917;horizontalStack=0;resizeParent=1;resizeParentMax=0;resizeLast=0;collapsible=1;marginBottom=0;whiteSpace=wrap;html=1;fontColor=#ffffff;strokeColor=#2D7600;" vertex="1" parent="1">
          <mxGeometry x="1140" y="251" width="140" height="52" as="geometry" />
        </mxCell>
        <mxCell id="ctU_p67GkgNmKsGkajiW-95" style="edgeStyle=orthogonalEdgeStyle;rounded=0;orthogonalLoop=1;jettySize=auto;html=1;entryX=-0.003;entryY=0.09;entryDx=0;entryDy=0;entryPerimeter=0;" edge="1" parent="1" source="ctU_p67GkgNmKsGkajiW-79" target="ctU_p67GkgNmKsGkajiW-86">
          <mxGeometry relative="1" as="geometry">
            <Array as="points">
              <mxPoint x="790" y="142.99999999999977" />
              <mxPoint x="790" y="273" />
            </Array>
          </mxGeometry>
        </mxCell>
        <mxCell id="ctU_p67GkgNmKsGkajiW-96" style="edgeStyle=orthogonalEdgeStyle;rounded=0;orthogonalLoop=1;jettySize=auto;html=1;entryX=0.206;entryY=-0.021;entryDx=0;entryDy=0;entryPerimeter=0;" edge="1" parent="1" source="ctU_p67GkgNmKsGkajiW-75" target="ctU_p67GkgNmKsGkajiW-86">
          <mxGeometry relative="1" as="geometry" />
        </mxCell>
        <mxCell id="ctU_p67GkgNmKsGkajiW-97" style="edgeStyle=orthogonalEdgeStyle;rounded=0;orthogonalLoop=1;jettySize=auto;html=1;entryX=0.631;entryY=0.012;entryDx=0;entryDy=0;entryPerimeter=0;" edge="1" parent="1" source="ctU_p67GkgNmKsGkajiW-83" target="ctU_p67GkgNmKsGkajiW-86">
          <mxGeometry relative="1" as="geometry" />
        </mxCell>
        <mxCell id="ctU_p67GkgNmKsGkajiW-98" style="edgeStyle=orthogonalEdgeStyle;rounded=0;orthogonalLoop=1;jettySize=auto;html=1;entryX=0;entryY=0.156;entryDx=0;entryDy=0;entryPerimeter=0;" edge="1" parent="1" source="ctU_p67GkgNmKsGkajiW-86" target="ctU_p67GkgNmKsGkajiW-91">
          <mxGeometry relative="1" as="geometry" />
        </mxCell>
        <mxCell id="ctU_p67GkgNmKsGkajiW-100" value="«uses»" style="text;html=1;align=center;verticalAlign=middle;whiteSpace=wrap;rounded=0;" vertex="1" parent="1">
          <mxGeometry x="730" y="221" width="60" height="30" as="geometry" />
        </mxCell>
        <mxCell id="ctU_p67GkgNmKsGkajiW-101" value="«uses»" style="text;html=1;align=center;verticalAlign=middle;whiteSpace=wrap;rounded=0;" vertex="1" parent="1">
          <mxGeometry x="1060" y="185" width="60" height="30" as="geometry" />
        </mxCell>
        <mxCell id="ctU_p67GkgNmKsGkajiW-102" value="«uses»" style="text;html=1;align=center;verticalAlign=middle;whiteSpace=wrap;rounded=0;" vertex="1" parent="1">
          <mxGeometry x="870" y="221" width="60" height="30" as="geometry" />
        </mxCell>
        <mxCell id="ctU_p67GkgNmKsGkajiW-103" value="«uses»" style="text;html=1;align=center;verticalAlign=middle;whiteSpace=wrap;rounded=0;" vertex="1" parent="1">
          <mxGeometry x="1080" y="370" width="60" height="30" as="geometry" />
        </mxCell>
        <mxCell id="ctU_p67GkgNmKsGkajiW-105" value="«creates»" style="text;html=1;align=center;verticalAlign=middle;whiteSpace=wrap;rounded=0;" vertex="1" parent="1">
          <mxGeometry x="1200" y="370" width="60" height="30" as="geometry" />
        </mxCell>
        <mxCell id="ctU_p67GkgNmKsGkajiW-160" value="" style="shape=folder;fontStyle=1;spacingTop=10;tabWidth=160;tabHeight=20;tabPosition=left;html=1;whiteSpace=wrap;" vertex="1" parent="1">
          <mxGeometry x="1410" y="-142" width="580" height="402" as="geometry" />
        </mxCell>
        <mxCell id="ctU_p67GkgNmKsGkajiW-161" value="WishlistItem Views Layer" style="text;align=center;fontStyle=1;verticalAlign=middle;spacingLeft=3;spacingRight=3;rotatable=0;points=[[0,0.5],[1,0.5]];portConstraint=eastwest;html=1;" vertex="1" parent="1">
          <mxGeometry x="1430" y="-140" width="120" height="20" as="geometry" />
        </mxCell>
        <mxCell id="ctU_p67GkgNmKsGkajiW-127" value="WishlistItemCreateView" style="swimlane;fontStyle=0;childLayout=stackLayout;horizontal=1;startSize=26;fillColor=#d80073;horizontalStack=0;resizeParent=1;resizeParentMax=0;resizeLast=0;collapsible=1;marginBottom=0;whiteSpace=wrap;html=1;fontColor=#ffffff;strokeColor=#A50040;" vertex="1" parent="1">
          <mxGeometry x="1440" y="127" width="140" height="78" as="geometry" />
        </mxCell>
        <mxCell id="ctU_p67GkgNmKsGkajiW-128" value="+get()" style="text;strokeColor=none;fillColor=none;align=left;verticalAlign=top;spacingLeft=4;spacingRight=4;overflow=hidden;rotatable=0;points=[[0,0.5],[1,0.5]];portConstraint=eastwest;whiteSpace=wrap;html=1;" vertex="1" parent="ctU_p67GkgNmKsGkajiW-127">
          <mxGeometry y="26" width="140" height="26" as="geometry" />
        </mxCell>
        <mxCell id="ctU_p67GkgNmKsGkajiW-129" value="+post()" style="text;strokeColor=none;fillColor=none;align=left;verticalAlign=top;spacingLeft=4;spacingRight=4;overflow=hidden;rotatable=0;points=[[0,0.5],[1,0.5]];portConstraint=eastwest;whiteSpace=wrap;html=1;" vertex="1" parent="ctU_p67GkgNmKsGkajiW-127">
          <mxGeometry y="52" width="140" height="26" as="geometry" />
        </mxCell>
        <mxCell id="ctU_p67GkgNmKsGkajiW-130" value="WishlistItemListDetailView" style="swimlane;fontStyle=0;childLayout=stackLayout;horizontal=1;startSize=26;fillColor=#d80073;horizontalStack=0;resizeParent=1;resizeParentMax=0;resizeLast=0;collapsible=1;marginBottom=0;whiteSpace=wrap;html=1;fontColor=#ffffff;strokeColor=#A50040;" vertex="1" parent="1">
          <mxGeometry x="1640" y="111" width="140" height="104" as="geometry" />
        </mxCell>
        <mxCell id="ctU_p67GkgNmKsGkajiW-131" value="+get()" style="text;strokeColor=none;fillColor=none;align=left;verticalAlign=top;spacingLeft=4;spacingRight=4;overflow=hidden;rotatable=0;points=[[0,0.5],[1,0.5]];portConstraint=eastwest;whiteSpace=wrap;html=1;" vertex="1" parent="ctU_p67GkgNmKsGkajiW-130">
          <mxGeometry y="26" width="140" height="26" as="geometry" />
        </mxCell>
        <mxCell id="ctU_p67GkgNmKsGkajiW-132" value="+put()" style="text;strokeColor=none;fillColor=none;align=left;verticalAlign=top;spacingLeft=4;spacingRight=4;overflow=hidden;rotatable=0;points=[[0,0.5],[1,0.5]];portConstraint=eastwest;whiteSpace=wrap;html=1;" vertex="1" parent="ctU_p67GkgNmKsGkajiW-130">
          <mxGeometry y="52" width="140" height="26" as="geometry" />
        </mxCell>
        <mxCell id="ctU_p67GkgNmKsGkajiW-133" value="+delete()" style="text;strokeColor=none;fillColor=none;align=left;verticalAlign=top;spacingLeft=4;spacingRight=4;overflow=hidden;rotatable=0;points=[[0,0.5],[1,0.5]];portConstraint=eastwest;whiteSpace=wrap;html=1;" vertex="1" parent="ctU_p67GkgNmKsGkajiW-130">
          <mxGeometry y="78" width="140" height="26" as="geometry" />
        </mxCell>
        <mxCell id="ctU_p67GkgNmKsGkajiW-154" style="edgeStyle=orthogonalEdgeStyle;rounded=0;orthogonalLoop=1;jettySize=auto;html=1;entryX=0;entryY=0.25;entryDx=0;entryDy=0;" edge="1" parent="1" source="ctU_p67GkgNmKsGkajiW-134" target="ctU_p67GkgNmKsGkajiW-139">
          <mxGeometry relative="1" as="geometry" />
        </mxCell>
        <mxCell id="ctU_p67GkgNmKsGkajiW-134" value="WishlistItemManagerSingleton" style="swimlane;fontStyle=0;childLayout=stackLayout;horizontal=1;startSize=26;fillColor=#d80073;horizontalStack=0;resizeParent=1;resizeParentMax=0;resizeLast=0;collapsible=1;marginBottom=0;whiteSpace=wrap;html=1;fontColor=#ffffff;strokeColor=#A50040;" vertex="1" parent="1">
          <mxGeometry x="1540" y="-80" width="190" height="160" as="geometry" />
        </mxCell>
        <mxCell id="ctU_p67GkgNmKsGkajiW-135" value="+create_wishlist_item(wishlist, shoe)" style="text;strokeColor=none;fillColor=none;align=left;verticalAlign=top;spacingLeft=4;spacingRight=4;overflow=hidden;rotatable=0;points=[[0,0.5],[1,0.5]];portConstraint=eastwest;whiteSpace=wrap;html=1;" vertex="1" parent="ctU_p67GkgNmKsGkajiW-134">
          <mxGeometry y="26" width="190" height="34" as="geometry" />
        </mxCell>
        <mxCell id="ctU_p67GkgNmKsGkajiW-136" value="+get_wishlist_item_by_id(item_id)" style="text;strokeColor=none;fillColor=none;align=left;verticalAlign=top;spacingLeft=4;spacingRight=4;overflow=hidden;rotatable=0;points=[[0,0.5],[1,0.5]];portConstraint=eastwest;whiteSpace=wrap;html=1;" vertex="1" parent="ctU_p67GkgNmKsGkajiW-134">
          <mxGeometry y="60" width="190" height="30" as="geometry" />
        </mxCell>
        <mxCell id="ctU_p67GkgNmKsGkajiW-137" value="+update_wishlist_item(item_id, data)" style="text;strokeColor=none;fillColor=none;align=left;verticalAlign=top;spacingLeft=4;spacingRight=4;overflow=hidden;rotatable=0;points=[[0,0.5],[1,0.5]];portConstraint=eastwest;whiteSpace=wrap;html=1;" vertex="1" parent="ctU_p67GkgNmKsGkajiW-134">
          <mxGeometry y="90" width="190" height="40" as="geometry" />
        </mxCell>
        <mxCell id="ctU_p67GkgNmKsGkajiW-138" value="+delete_wishlist_item(item_id)" style="text;strokeColor=none;fillColor=none;align=left;verticalAlign=top;spacingLeft=4;spacingRight=4;overflow=hidden;rotatable=0;points=[[0,0.5],[1,0.5]];portConstraint=eastwest;whiteSpace=wrap;html=1;" vertex="1" parent="ctU_p67GkgNmKsGkajiW-134">
          <mxGeometry y="130" width="190" height="30" as="geometry" />
        </mxCell>
        <mxCell id="ctU_p67GkgNmKsGkajiW-139" value="WishlistItemFactory" style="swimlane;fontStyle=0;childLayout=stackLayout;horizontal=1;startSize=26;fillColor=#d80073;horizontalStack=0;resizeParent=1;resizeParentMax=0;resizeLast=0;collapsible=1;marginBottom=0;whiteSpace=wrap;html=1;fontColor=#ffffff;strokeColor=#A50040;" vertex="1" parent="1">
          <mxGeometry x="1805" y="-57" width="180" height="70" as="geometry" />
        </mxCell>
        <mxCell id="ctU_p67GkgNmKsGkajiW-140" value="+create_wishlist_item(wishlist, shoe, commit=True)" style="text;strokeColor=none;fillColor=none;align=left;verticalAlign=top;spacingLeft=4;spacingRight=4;overflow=hidden;rotatable=0;points=[[0,0.5],[1,0.5]];portConstraint=eastwest;whiteSpace=wrap;html=1;" vertex="1" parent="ctU_p67GkgNmKsGkajiW-139">
          <mxGeometry y="26" width="180" height="44" as="geometry" />
        </mxCell>
        <mxCell id="ctU_p67GkgNmKsGkajiW-141" value="WishlistItem" style="html=1;whiteSpace=wrap;fillColor=#d80073;fontColor=#ffffff;strokeColor=#A50040;" vertex="1" parent="1">
          <mxGeometry x="1830" y="79" width="110" height="50" as="geometry" />
        </mxCell>
        <mxCell id="ctU_p67GkgNmKsGkajiW-152" style="edgeStyle=orthogonalEdgeStyle;rounded=0;orthogonalLoop=1;jettySize=auto;html=1;entryX=0.002;entryY=0.135;entryDx=0;entryDy=0;entryPerimeter=0;" edge="1" parent="1" source="ctU_p67GkgNmKsGkajiW-127" target="ctU_p67GkgNmKsGkajiW-134">
          <mxGeometry relative="1" as="geometry" />
        </mxCell>
        <mxCell id="ctU_p67GkgNmKsGkajiW-153" style="edgeStyle=orthogonalEdgeStyle;rounded=0;orthogonalLoop=1;jettySize=auto;html=1;entryX=0.633;entryY=0.969;entryDx=0;entryDy=0;entryPerimeter=0;" edge="1" parent="1" source="ctU_p67GkgNmKsGkajiW-130" target="ctU_p67GkgNmKsGkajiW-138">
          <mxGeometry relative="1" as="geometry" />
        </mxCell>
        <mxCell id="ctU_p67GkgNmKsGkajiW-155" style="edgeStyle=orthogonalEdgeStyle;rounded=0;orthogonalLoop=1;jettySize=auto;html=1;entryX=0.579;entryY=0.102;entryDx=0;entryDy=0;entryPerimeter=0;" edge="1" parent="1" source="ctU_p67GkgNmKsGkajiW-139" target="ctU_p67GkgNmKsGkajiW-141">
          <mxGeometry relative="1" as="geometry" />
        </mxCell>
        <mxCell id="ctU_p67GkgNmKsGkajiW-156" value="«creates»" style="text;html=1;align=center;verticalAlign=middle;whiteSpace=wrap;rounded=0;" vertex="1" parent="1">
          <mxGeometry x="1910" y="23" width="60" height="30" as="geometry" />
        </mxCell>
        <mxCell id="ctU_p67GkgNmKsGkajiW-157" value="«uses»" style="text;html=1;align=center;verticalAlign=middle;whiteSpace=wrap;rounded=0;" vertex="1" parent="1">
          <mxGeometry x="1720" y="79" width="60" height="30" as="geometry" />
        </mxCell>
        <mxCell id="ctU_p67GkgNmKsGkajiW-158" value="«uses»" style="text;html=1;align=center;verticalAlign=middle;whiteSpace=wrap;rounded=0;" vertex="1" parent="1">
          <mxGeometry x="1450" y="-17" width="60" height="30" as="geometry" />
        </mxCell>
        <mxCell id="ctU_p67GkgNmKsGkajiW-159" value="«uses»" style="text;html=1;align=center;verticalAlign=middle;whiteSpace=wrap;rounded=0;" vertex="1" parent="1">
          <mxGeometry x="1730" y="3" width="60" height="30" as="geometry" />
        </mxCell>
        <mxCell id="ctU_p67GkgNmKsGkajiW-162" value="" style="shape=folder;fontStyle=1;spacingTop=10;tabWidth=160;tabHeight=20;tabPosition=left;html=1;whiteSpace=wrap;" vertex="1" parent="1">
          <mxGeometry x="1350" y="300" width="580" height="450" as="geometry" />
        </mxCell>
        <mxCell id="ctU_p67GkgNmKsGkajiW-163" value="Wishlist Views Layer" style="text;align=center;fontStyle=1;verticalAlign=middle;spacingLeft=3;spacingRight=3;rotatable=0;points=[[0,0.5],[1,0.5]];portConstraint=eastwest;html=1;" vertex="1" parent="1">
          <mxGeometry x="1370" y="300" width="120" height="20" as="geometry" />
        </mxCell>
        <mxCell id="ctU_p67GkgNmKsGkajiW-108" value="WishlistListCreateView" style="swimlane;fontStyle=0;childLayout=stackLayout;horizontal=1;startSize=26;fillColor=#d80073;horizontalStack=0;resizeParent=1;resizeParentMax=0;resizeLast=0;collapsible=1;marginBottom=0;whiteSpace=wrap;html=1;fontColor=#ffffff;strokeColor=#A50040;" vertex="1" parent="1">
          <mxGeometry x="1673" y="330" width="140" height="78" as="geometry" />
        </mxCell>
        <mxCell id="ctU_p67GkgNmKsGkajiW-109" value="+get()" style="text;strokeColor=none;fillColor=none;align=left;verticalAlign=top;spacingLeft=4;spacingRight=4;overflow=hidden;rotatable=0;points=[[0,0.5],[1,0.5]];portConstraint=eastwest;whiteSpace=wrap;html=1;" vertex="1" parent="ctU_p67GkgNmKsGkajiW-108">
          <mxGeometry y="26" width="140" height="26" as="geometry" />
        </mxCell>
        <mxCell id="ctU_p67GkgNmKsGkajiW-110" value="+post()" style="text;strokeColor=none;fillColor=none;align=left;verticalAlign=top;spacingLeft=4;spacingRight=4;overflow=hidden;rotatable=0;points=[[0,0.5],[1,0.5]];portConstraint=eastwest;whiteSpace=wrap;html=1;" vertex="1" parent="ctU_p67GkgNmKsGkajiW-108">
          <mxGeometry y="52" width="140" height="26" as="geometry" />
        </mxCell>
        <mxCell id="ctU_p67GkgNmKsGkajiW-111" value="WishlistListManagerSingleton" style="swimlane;fontStyle=0;childLayout=stackLayout;horizontal=1;startSize=26;fillColor=#d80073;horizontalStack=0;resizeParent=1;resizeParentMax=0;resizeLast=0;collapsible=1;marginBottom=0;whiteSpace=wrap;html=1;fontColor=#ffffff;strokeColor=#A50040;" vertex="1" parent="1">
          <mxGeometry x="1573" y="450" width="190" height="160" as="geometry" />
        </mxCell>
        <mxCell id="ctU_p67GkgNmKsGkajiW-112" value="+create_wishlist(user, name)" style="text;strokeColor=none;fillColor=none;align=left;verticalAlign=top;spacingLeft=4;spacingRight=4;overflow=hidden;rotatable=0;points=[[0,0.5],[1,0.5]];portConstraint=eastwest;whiteSpace=wrap;html=1;" vertex="1" parent="ctU_p67GkgNmKsGkajiW-111">
          <mxGeometry y="26" width="190" height="34" as="geometry" />
        </mxCell>
        <mxCell id="ctU_p67GkgNmKsGkajiW-113" value="+get_wishlist_by_id(wishlist_id)" style="text;strokeColor=none;fillColor=none;align=left;verticalAlign=top;spacingLeft=4;spacingRight=4;overflow=hidden;rotatable=0;points=[[0,0.5],[1,0.5]];portConstraint=eastwest;whiteSpace=wrap;html=1;" vertex="1" parent="ctU_p67GkgNmKsGkajiW-111">
          <mxGeometry y="60" width="190" height="30" as="geometry" />
        </mxCell>
        <mxCell id="ctU_p67GkgNmKsGkajiW-124" value="+update_wishlist(wishlist_id, data)" style="text;strokeColor=none;fillColor=none;align=left;verticalAlign=top;spacingLeft=4;spacingRight=4;overflow=hidden;rotatable=0;points=[[0,0.5],[1,0.5]];portConstraint=eastwest;whiteSpace=wrap;html=1;" vertex="1" parent="ctU_p67GkgNmKsGkajiW-111">
          <mxGeometry y="90" width="190" height="40" as="geometry" />
        </mxCell>
        <mxCell id="ctU_p67GkgNmKsGkajiW-125" value="+delete_wishlist(wishlist_id)" style="text;strokeColor=none;fillColor=none;align=left;verticalAlign=top;spacingLeft=4;spacingRight=4;overflow=hidden;rotatable=0;points=[[0,0.5],[1,0.5]];portConstraint=eastwest;whiteSpace=wrap;html=1;" vertex="1" parent="ctU_p67GkgNmKsGkajiW-111">
          <mxGeometry y="130" width="190" height="30" as="geometry" />
        </mxCell>
        <mxCell id="ctU_p67GkgNmKsGkajiW-114" value="WishlistFactory" style="swimlane;fontStyle=0;childLayout=stackLayout;horizontal=1;startSize=26;fillColor=#d80073;horizontalStack=0;resizeParent=1;resizeParentMax=0;resizeLast=0;collapsible=1;marginBottom=0;whiteSpace=wrap;html=1;fontColor=#ffffff;strokeColor=#A50040;" vertex="1" parent="1">
          <mxGeometry x="1410" y="546" width="140" height="70" as="geometry" />
        </mxCell>
        <mxCell id="ctU_p67GkgNmKsGkajiW-115" value="+ create_wishlist(user, name, commit=True)" style="text;strokeColor=none;fillColor=none;align=left;verticalAlign=top;spacingLeft=4;spacingRight=4;overflow=hidden;rotatable=0;points=[[0,0.5],[1,0.5]];portConstraint=eastwest;whiteSpace=wrap;html=1;" vertex="1" parent="ctU_p67GkgNmKsGkajiW-114">
          <mxGeometry y="26" width="140" height="44" as="geometry" />
        </mxCell>
        <mxCell id="ctU_p67GkgNmKsGkajiW-145" style="edgeStyle=orthogonalEdgeStyle;rounded=0;orthogonalLoop=1;jettySize=auto;html=1;entryX=1;entryY=0.5;entryDx=0;entryDy=0;" edge="1" parent="1" source="ctU_p67GkgNmKsGkajiW-117" target="ctU_p67GkgNmKsGkajiW-124">
          <mxGeometry relative="1" as="geometry">
            <Array as="points">
              <mxPoint x="1803" y="682" />
              <mxPoint x="1803" y="605" />
              <mxPoint x="1783" y="605" />
              <mxPoint x="1783" y="560" />
            </Array>
          </mxGeometry>
        </mxCell>
        <mxCell id="ctU_p67GkgNmKsGkajiW-117" value="WishlistListDetailView" style="swimlane;fontStyle=0;childLayout=stackLayout;horizontal=1;startSize=26;fillColor=#d80073;horizontalStack=0;resizeParent=1;resizeParentMax=0;resizeLast=0;collapsible=1;marginBottom=0;whiteSpace=wrap;html=1;fontColor=#ffffff;strokeColor=#A50040;" vertex="1" parent="1">
          <mxGeometry x="1643" y="630" width="140" height="104" as="geometry" />
        </mxCell>
        <mxCell id="ctU_p67GkgNmKsGkajiW-118" value="+get()" style="text;strokeColor=none;fillColor=none;align=left;verticalAlign=top;spacingLeft=4;spacingRight=4;overflow=hidden;rotatable=0;points=[[0,0.5],[1,0.5]];portConstraint=eastwest;whiteSpace=wrap;html=1;" vertex="1" parent="ctU_p67GkgNmKsGkajiW-117">
          <mxGeometry y="26" width="140" height="26" as="geometry" />
        </mxCell>
        <mxCell id="ctU_p67GkgNmKsGkajiW-119" value="+put()" style="text;strokeColor=none;fillColor=none;align=left;verticalAlign=top;spacingLeft=4;spacingRight=4;overflow=hidden;rotatable=0;points=[[0,0.5],[1,0.5]];portConstraint=eastwest;whiteSpace=wrap;html=1;" vertex="1" parent="ctU_p67GkgNmKsGkajiW-117">
          <mxGeometry y="52" width="140" height="26" as="geometry" />
        </mxCell>
        <mxCell id="ctU_p67GkgNmKsGkajiW-120" value="+delete()" style="text;strokeColor=none;fillColor=none;align=left;verticalAlign=top;spacingLeft=4;spacingRight=4;overflow=hidden;rotatable=0;points=[[0,0.5],[1,0.5]];portConstraint=eastwest;whiteSpace=wrap;html=1;" vertex="1" parent="ctU_p67GkgNmKsGkajiW-117">
          <mxGeometry y="78" width="140" height="26" as="geometry" />
        </mxCell>
        <mxCell id="ctU_p67GkgNmKsGkajiW-126" value="Wishlist" style="html=1;whiteSpace=wrap;fillColor=#d80073;fontColor=#ffffff;strokeColor=#A50040;" vertex="1" parent="1">
          <mxGeometry x="1425" y="679" width="110" height="50" as="geometry" />
        </mxCell>
        <mxCell id="ctU_p67GkgNmKsGkajiW-142" style="edgeStyle=orthogonalEdgeStyle;rounded=0;orthogonalLoop=1;jettySize=auto;html=1;entryX=0.098;entryY=0.026;entryDx=0;entryDy=0;entryPerimeter=0;" edge="1" parent="1" source="ctU_p67GkgNmKsGkajiW-108" target="ctU_p67GkgNmKsGkajiW-111">
          <mxGeometry relative="1" as="geometry" />
        </mxCell>
        <mxCell id="ctU_p67GkgNmKsGkajiW-144" style="edgeStyle=orthogonalEdgeStyle;rounded=0;orthogonalLoop=1;jettySize=auto;html=1;entryX=0.5;entryY=0;entryDx=0;entryDy=0;" edge="1" parent="1" source="ctU_p67GkgNmKsGkajiW-112" target="ctU_p67GkgNmKsGkajiW-114">
          <mxGeometry relative="1" as="geometry" />
        </mxCell>
        <mxCell id="ctU_p67GkgNmKsGkajiW-146" style="edgeStyle=orthogonalEdgeStyle;rounded=0;orthogonalLoop=1;jettySize=auto;html=1;entryX=0.5;entryY=0;entryDx=0;entryDy=0;" edge="1" parent="1" source="ctU_p67GkgNmKsGkajiW-115" target="ctU_p67GkgNmKsGkajiW-126">
          <mxGeometry relative="1" as="geometry">
            <Array as="points">
              <mxPoint x="1480" y="650" />
              <mxPoint x="1480" y="650" />
            </Array>
          </mxGeometry>
        </mxCell>
        <mxCell id="ctU_p67GkgNmKsGkajiW-147" value="«uses»" style="text;html=1;align=center;verticalAlign=middle;whiteSpace=wrap;rounded=0;" vertex="1" parent="1">
          <mxGeometry x="1583" y="388" width="60" height="30" as="geometry" />
        </mxCell>
        <mxCell id="ctU_p67GkgNmKsGkajiW-148" value="«uses»" style="text;html=1;align=center;verticalAlign=middle;whiteSpace=wrap;rounded=0;" vertex="1" parent="1">
          <mxGeometry x="1490" y="465" width="60" height="30" as="geometry" />
        </mxCell>
        <mxCell id="ctU_p67GkgNmKsGkajiW-149" value="«uses»" style="text;html=1;align=center;verticalAlign=middle;whiteSpace=wrap;rounded=0;" vertex="1" parent="1">
          <mxGeometry x="1783" y="580" width="60" height="30" as="geometry" />
        </mxCell>
        <mxCell id="ctU_p67GkgNmKsGkajiW-151" value="«creates»" style="text;html=1;align=center;verticalAlign=middle;whiteSpace=wrap;rounded=0;" vertex="1" parent="1">
          <mxGeometry x="1490" y="630" width="60" height="30" as="geometry" />
        </mxCell>
        <mxCell id="ctU_p67GkgNmKsGkajiW-231" value="" style="shape=folder;fontStyle=1;spacingTop=10;tabWidth=160;tabHeight=20;tabPosition=left;html=1;whiteSpace=wrap;" vertex="1" parent="1">
          <mxGeometry x="663" y="-784" width="847" height="604" as="geometry" />
        </mxCell>
        <mxCell id="ctU_p67GkgNmKsGkajiW-232" value="Shoe Management&amp;nbsp;" style="text;align=center;fontStyle=1;verticalAlign=middle;spacingLeft=3;spacingRight=3;rotatable=0;points=[[0,0.5],[1,0.5]];portConstraint=eastwest;html=1;" vertex="1" parent="1">
          <mxGeometry x="683" y="-784" width="120" height="20" as="geometry" />
        </mxCell>
        <mxCell id="ctU_p67GkgNmKsGkajiW-199" style="edgeStyle=orthogonalEdgeStyle;rounded=0;orthogonalLoop=1;jettySize=auto;html=1;entryX=0.5;entryY=0;entryDx=0;entryDy=0;" edge="1" parent="1" source="ctU_p67GkgNmKsGkajiW-169" target="ctU_p67GkgNmKsGkajiW-179">
          <mxGeometry relative="1" as="geometry" />
        </mxCell>
        <mxCell id="ctU_p67GkgNmKsGkajiW-169" value="ShoeManagerSingleton" style="swimlane;fontStyle=0;childLayout=stackLayout;horizontal=1;startSize=26;fillColor=#a20025;horizontalStack=0;resizeParent=1;resizeParentMax=0;resizeLast=0;collapsible=1;marginBottom=0;whiteSpace=wrap;html=1;fontColor=#ffffff;strokeColor=#6F0000;" vertex="1" parent="1">
          <mxGeometry x="853" y="-563" width="180" height="130" as="geometry" />
        </mxCell>
        <mxCell id="ctU_p67GkgNmKsGkajiW-170" value="+create_shoe()" style="text;strokeColor=none;fillColor=none;align=left;verticalAlign=top;spacingLeft=4;spacingRight=4;overflow=hidden;rotatable=0;points=[[0,0.5],[1,0.5]];portConstraint=eastwest;whiteSpace=wrap;html=1;" vertex="1" parent="ctU_p67GkgNmKsGkajiW-169">
          <mxGeometry y="26" width="180" height="26" as="geometry" />
        </mxCell>
        <mxCell id="ctU_p67GkgNmKsGkajiW-171" value="&lt;div&gt;+get_shoe_by_id()&lt;/div&gt;" style="text;strokeColor=none;fillColor=none;align=left;verticalAlign=top;spacingLeft=4;spacingRight=4;overflow=hidden;rotatable=0;points=[[0,0.5],[1,0.5]];portConstraint=eastwest;whiteSpace=wrap;html=1;" vertex="1" parent="ctU_p67GkgNmKsGkajiW-169">
          <mxGeometry y="52" width="180" height="26" as="geometry" />
        </mxCell>
        <mxCell id="ctU_p67GkgNmKsGkajiW-172" value="+update_shoe()" style="text;strokeColor=none;fillColor=none;align=left;verticalAlign=top;spacingLeft=4;spacingRight=4;overflow=hidden;rotatable=0;points=[[0,0.5],[1,0.5]];portConstraint=eastwest;whiteSpace=wrap;html=1;" vertex="1" parent="ctU_p67GkgNmKsGkajiW-169">
          <mxGeometry y="78" width="180" height="26" as="geometry" />
        </mxCell>
        <mxCell id="ctU_p67GkgNmKsGkajiW-173" value="+delete_shoe()" style="text;strokeColor=none;fillColor=none;align=left;verticalAlign=top;spacingLeft=4;spacingRight=4;overflow=hidden;rotatable=0;points=[[0,0.5],[1,0.5]];portConstraint=eastwest;whiteSpace=wrap;html=1;" vertex="1" parent="ctU_p67GkgNmKsGkajiW-169">
          <mxGeometry y="104" width="180" height="26" as="geometry" />
        </mxCell>
        <mxCell id="ctU_p67GkgNmKsGkajiW-174" value="BrandManagerSingleton" style="swimlane;fontStyle=0;childLayout=stackLayout;horizontal=1;startSize=26;fillColor=#a20025;horizontalStack=0;resizeParent=1;resizeParentMax=0;resizeLast=0;collapsible=1;marginBottom=0;whiteSpace=wrap;html=1;fontColor=#ffffff;strokeColor=#6F0000;" vertex="1" parent="1">
          <mxGeometry x="1083" y="-519" width="180" height="130" as="geometry" />
        </mxCell>
        <mxCell id="ctU_p67GkgNmKsGkajiW-175" value="+create_brand()" style="text;strokeColor=none;fillColor=none;align=left;verticalAlign=top;spacingLeft=4;spacingRight=4;overflow=hidden;rotatable=0;points=[[0,0.5],[1,0.5]];portConstraint=eastwest;whiteSpace=wrap;html=1;" vertex="1" parent="ctU_p67GkgNmKsGkajiW-174">
          <mxGeometry y="26" width="180" height="26" as="geometry" />
        </mxCell>
        <mxCell id="ctU_p67GkgNmKsGkajiW-176" value="&lt;div&gt;+get_brand_by_id()&lt;/div&gt;" style="text;strokeColor=none;fillColor=none;align=left;verticalAlign=top;spacingLeft=4;spacingRight=4;overflow=hidden;rotatable=0;points=[[0,0.5],[1,0.5]];portConstraint=eastwest;whiteSpace=wrap;html=1;" vertex="1" parent="ctU_p67GkgNmKsGkajiW-174">
          <mxGeometry y="52" width="180" height="26" as="geometry" />
        </mxCell>
        <mxCell id="ctU_p67GkgNmKsGkajiW-177" value="+update_brand()" style="text;strokeColor=none;fillColor=none;align=left;verticalAlign=top;spacingLeft=4;spacingRight=4;overflow=hidden;rotatable=0;points=[[0,0.5],[1,0.5]];portConstraint=eastwest;whiteSpace=wrap;html=1;" vertex="1" parent="ctU_p67GkgNmKsGkajiW-174">
          <mxGeometry y="78" width="180" height="26" as="geometry" />
        </mxCell>
        <mxCell id="ctU_p67GkgNmKsGkajiW-178" value="+delete_brand()" style="text;strokeColor=none;fillColor=none;align=left;verticalAlign=top;spacingLeft=4;spacingRight=4;overflow=hidden;rotatable=0;points=[[0,0.5],[1,0.5]];portConstraint=eastwest;whiteSpace=wrap;html=1;" vertex="1" parent="ctU_p67GkgNmKsGkajiW-174">
          <mxGeometry y="104" width="180" height="26" as="geometry" />
        </mxCell>
        <mxCell id="ctU_p67GkgNmKsGkajiW-215" style="edgeStyle=orthogonalEdgeStyle;rounded=0;orthogonalLoop=1;jettySize=auto;html=1;entryX=0;entryY=0.25;entryDx=0;entryDy=0;" edge="1" parent="1" source="ctU_p67GkgNmKsGkajiW-179" target="ctU_p67GkgNmKsGkajiW-210">
          <mxGeometry relative="1" as="geometry" />
        </mxCell>
        <mxCell id="ctU_p67GkgNmKsGkajiW-179" value="StyleManagerSingleton" style="swimlane;fontStyle=0;childLayout=stackLayout;horizontal=1;startSize=26;fillColor=#a20025;horizontalStack=0;resizeParent=1;resizeParentMax=0;resizeLast=0;collapsible=1;marginBottom=0;whiteSpace=wrap;html=1;fontColor=#ffffff;strokeColor=#6F0000;" vertex="1" parent="1">
          <mxGeometry x="863" y="-385" width="180" height="130" as="geometry" />
        </mxCell>
        <mxCell id="ctU_p67GkgNmKsGkajiW-180" value="+create_style()" style="text;strokeColor=none;fillColor=none;align=left;verticalAlign=top;spacingLeft=4;spacingRight=4;overflow=hidden;rotatable=0;points=[[0,0.5],[1,0.5]];portConstraint=eastwest;whiteSpace=wrap;html=1;" vertex="1" parent="ctU_p67GkgNmKsGkajiW-179">
          <mxGeometry y="26" width="180" height="26" as="geometry" />
        </mxCell>
        <mxCell id="ctU_p67GkgNmKsGkajiW-181" value="&lt;div&gt;+get_style_by_id()&lt;/div&gt;" style="text;strokeColor=none;fillColor=none;align=left;verticalAlign=top;spacingLeft=4;spacingRight=4;overflow=hidden;rotatable=0;points=[[0,0.5],[1,0.5]];portConstraint=eastwest;whiteSpace=wrap;html=1;" vertex="1" parent="ctU_p67GkgNmKsGkajiW-179">
          <mxGeometry y="52" width="180" height="26" as="geometry" />
        </mxCell>
        <mxCell id="ctU_p67GkgNmKsGkajiW-182" value="+update_style()" style="text;strokeColor=none;fillColor=none;align=left;verticalAlign=top;spacingLeft=4;spacingRight=4;overflow=hidden;rotatable=0;points=[[0,0.5],[1,0.5]];portConstraint=eastwest;whiteSpace=wrap;html=1;" vertex="1" parent="ctU_p67GkgNmKsGkajiW-179">
          <mxGeometry y="78" width="180" height="26" as="geometry" />
        </mxCell>
        <mxCell id="ctU_p67GkgNmKsGkajiW-183" value="+delete_style()" style="text;strokeColor=none;fillColor=none;align=left;verticalAlign=top;spacingLeft=4;spacingRight=4;overflow=hidden;rotatable=0;points=[[0,0.5],[1,0.5]];portConstraint=eastwest;whiteSpace=wrap;html=1;" vertex="1" parent="ctU_p67GkgNmKsGkajiW-179">
          <mxGeometry y="104" width="180" height="26" as="geometry" />
        </mxCell>
        <mxCell id="ctU_p67GkgNmKsGkajiW-196" style="edgeStyle=orthogonalEdgeStyle;rounded=0;orthogonalLoop=1;jettySize=auto;html=1;entryX=0.25;entryY=0;entryDx=0;entryDy=0;" edge="1" parent="1" source="ctU_p67GkgNmKsGkajiW-184" target="ctU_p67GkgNmKsGkajiW-169">
          <mxGeometry relative="1" as="geometry" />
        </mxCell>
        <mxCell id="ctU_p67GkgNmKsGkajiW-184" value="ShoeListView" style="swimlane;fontStyle=0;childLayout=stackLayout;horizontal=1;startSize=26;fillColor=#a20025;horizontalStack=0;resizeParent=1;resizeParentMax=0;resizeLast=0;collapsible=1;marginBottom=0;whiteSpace=wrap;html=1;fontColor=#ffffff;strokeColor=#6F0000;" vertex="1" parent="1">
          <mxGeometry x="723" y="-721" width="140" height="78" as="geometry" />
        </mxCell>
        <mxCell id="ctU_p67GkgNmKsGkajiW-185" value="+get()" style="text;strokeColor=none;fillColor=none;align=left;verticalAlign=top;spacingLeft=4;spacingRight=4;overflow=hidden;rotatable=0;points=[[0,0.5],[1,0.5]];portConstraint=eastwest;whiteSpace=wrap;html=1;" vertex="1" parent="ctU_p67GkgNmKsGkajiW-184">
          <mxGeometry y="26" width="140" height="26" as="geometry" />
        </mxCell>
        <mxCell id="ctU_p67GkgNmKsGkajiW-186" value="+post()" style="text;strokeColor=none;fillColor=none;align=left;verticalAlign=top;spacingLeft=4;spacingRight=4;overflow=hidden;rotatable=0;points=[[0,0.5],[1,0.5]];portConstraint=eastwest;whiteSpace=wrap;html=1;" vertex="1" parent="ctU_p67GkgNmKsGkajiW-184">
          <mxGeometry y="52" width="140" height="26" as="geometry" />
        </mxCell>
        <mxCell id="ctU_p67GkgNmKsGkajiW-189" value="ShoeDetailView" style="swimlane;fontStyle=0;childLayout=stackLayout;horizontal=1;startSize=26;fillColor=#a20025;horizontalStack=0;resizeParent=1;resizeParentMax=0;resizeLast=0;collapsible=1;marginBottom=0;whiteSpace=wrap;html=1;fontColor=#ffffff;strokeColor=#6F0000;" vertex="1" parent="1">
          <mxGeometry x="953" y="-729" width="140" height="104" as="geometry" />
        </mxCell>
        <mxCell id="ctU_p67GkgNmKsGkajiW-190" value="+get()" style="text;strokeColor=none;fillColor=none;align=left;verticalAlign=top;spacingLeft=4;spacingRight=4;overflow=hidden;rotatable=0;points=[[0,0.5],[1,0.5]];portConstraint=eastwest;whiteSpace=wrap;html=1;" vertex="1" parent="ctU_p67GkgNmKsGkajiW-189">
          <mxGeometry y="26" width="140" height="26" as="geometry" />
        </mxCell>
        <mxCell id="ctU_p67GkgNmKsGkajiW-191" value="+put()" style="text;strokeColor=none;fillColor=none;align=left;verticalAlign=top;spacingLeft=4;spacingRight=4;overflow=hidden;rotatable=0;points=[[0,0.5],[1,0.5]];portConstraint=eastwest;whiteSpace=wrap;html=1;" vertex="1" parent="ctU_p67GkgNmKsGkajiW-189">
          <mxGeometry y="52" width="140" height="26" as="geometry" />
        </mxCell>
        <mxCell id="ctU_p67GkgNmKsGkajiW-192" value="+delete()" style="text;strokeColor=none;fillColor=none;align=left;verticalAlign=top;spacingLeft=4;spacingRight=4;overflow=hidden;rotatable=0;points=[[0,0.5],[1,0.5]];portConstraint=eastwest;whiteSpace=wrap;html=1;" vertex="1" parent="ctU_p67GkgNmKsGkajiW-189">
          <mxGeometry y="78" width="140" height="26" as="geometry" />
        </mxCell>
        <mxCell id="ctU_p67GkgNmKsGkajiW-193" value="Shoe" style="html=1;whiteSpace=wrap;fillColor=#a20025;fontColor=#ffffff;strokeColor=#6F0000;" vertex="1" parent="1">
          <mxGeometry x="693" y="-269" width="110" height="50" as="geometry" />
        </mxCell>
        <mxCell id="ctU_p67GkgNmKsGkajiW-194" value="Brand" style="html=1;whiteSpace=wrap;fillColor=#a20025;fontColor=#ffffff;strokeColor=#6F0000;" vertex="1" parent="1">
          <mxGeometry x="1353" y="-600" width="110" height="50" as="geometry" />
        </mxCell>
        <mxCell id="ctU_p67GkgNmKsGkajiW-195" value="Style" style="html=1;whiteSpace=wrap;fillColor=#a20025;fontColor=#ffffff;strokeColor=#6F0000;" vertex="1" parent="1">
          <mxGeometry x="1323" y="-373" width="110" height="50" as="geometry" />
        </mxCell>
        <mxCell id="ctU_p67GkgNmKsGkajiW-197" style="edgeStyle=orthogonalEdgeStyle;rounded=0;orthogonalLoop=1;jettySize=auto;html=1;entryX=0.56;entryY=-0.019;entryDx=0;entryDy=0;entryPerimeter=0;" edge="1" parent="1" source="ctU_p67GkgNmKsGkajiW-189" target="ctU_p67GkgNmKsGkajiW-169">
          <mxGeometry relative="1" as="geometry" />
        </mxCell>
        <mxCell id="ctU_p67GkgNmKsGkajiW-198" style="edgeStyle=orthogonalEdgeStyle;rounded=0;orthogonalLoop=1;jettySize=auto;html=1;entryX=0.007;entryY=0.162;entryDx=0;entryDy=0;entryPerimeter=0;" edge="1" parent="1" source="ctU_p67GkgNmKsGkajiW-169" target="ctU_p67GkgNmKsGkajiW-174">
          <mxGeometry relative="1" as="geometry" />
        </mxCell>
        <mxCell id="ctU_p67GkgNmKsGkajiW-208" value="ShoeFactory" style="swimlane;fontStyle=0;childLayout=stackLayout;horizontal=1;startSize=26;fillColor=#a20025;horizontalStack=0;resizeParent=1;resizeParentMax=0;resizeLast=0;collapsible=1;marginBottom=0;whiteSpace=wrap;html=1;fontColor=#ffffff;strokeColor=#6F0000;" vertex="1" parent="1">
          <mxGeometry x="683" y="-419" width="150" height="70" as="geometry" />
        </mxCell>
        <mxCell id="ctU_p67GkgNmKsGkajiW-209" value="&lt;div&gt;+create_order_item(order, shoe, quantity, price)&lt;/div&gt;&lt;div&gt;&lt;br&gt;&lt;/div&gt;" style="text;strokeColor=none;fillColor=none;align=left;verticalAlign=top;spacingLeft=4;spacingRight=4;overflow=hidden;rotatable=0;points=[[0,0.5],[1,0.5]];portConstraint=eastwest;whiteSpace=wrap;html=1;" vertex="1" parent="ctU_p67GkgNmKsGkajiW-208">
          <mxGeometry y="26" width="150" height="44" as="geometry" />
        </mxCell>
        <mxCell id="ctU_p67GkgNmKsGkajiW-218" style="edgeStyle=orthogonalEdgeStyle;rounded=0;orthogonalLoop=1;jettySize=auto;html=1;entryX=0;entryY=0.5;entryDx=0;entryDy=0;" edge="1" parent="1" source="ctU_p67GkgNmKsGkajiW-210" target="ctU_p67GkgNmKsGkajiW-195">
          <mxGeometry relative="1" as="geometry" />
        </mxCell>
        <mxCell id="ctU_p67GkgNmKsGkajiW-210" value="StyleFactory" style="swimlane;fontStyle=0;childLayout=stackLayout;horizontal=1;startSize=26;fillColor=#a20025;horizontalStack=0;resizeParent=1;resizeParentMax=0;resizeLast=0;collapsible=1;marginBottom=0;whiteSpace=wrap;html=1;fontColor=#ffffff;strokeColor=#6F0000;" vertex="1" parent="1">
          <mxGeometry x="1098" y="-339" width="150" height="70" as="geometry" />
        </mxCell>
        <mxCell id="ctU_p67GkgNmKsGkajiW-211" value="&lt;div&gt;+create_order_item(order, shoe, quantity, price)&lt;/div&gt;&lt;div&gt;&lt;br&gt;&lt;/div&gt;" style="text;strokeColor=none;fillColor=none;align=left;verticalAlign=top;spacingLeft=4;spacingRight=4;overflow=hidden;rotatable=0;points=[[0,0.5],[1,0.5]];portConstraint=eastwest;whiteSpace=wrap;html=1;" vertex="1" parent="ctU_p67GkgNmKsGkajiW-210">
          <mxGeometry y="26" width="150" height="44" as="geometry" />
        </mxCell>
        <mxCell id="ctU_p67GkgNmKsGkajiW-212" value="BrandFactory" style="swimlane;fontStyle=0;childLayout=stackLayout;horizontal=1;startSize=26;fillColor=#a20025;horizontalStack=0;resizeParent=1;resizeParentMax=0;resizeLast=0;collapsible=1;marginBottom=0;whiteSpace=wrap;html=1;fontColor=#ffffff;strokeColor=#6F0000;" vertex="1" parent="1">
          <mxGeometry x="1323" y="-512" width="150" height="70" as="geometry" />
        </mxCell>
        <mxCell id="ctU_p67GkgNmKsGkajiW-213" value="&lt;div&gt;+create_order_item(order, shoe, quantity, price)&lt;/div&gt;&lt;div&gt;&lt;br&gt;&lt;/div&gt;" style="text;strokeColor=none;fillColor=none;align=left;verticalAlign=top;spacingLeft=4;spacingRight=4;overflow=hidden;rotatable=0;points=[[0,0.5],[1,0.5]];portConstraint=eastwest;whiteSpace=wrap;html=1;" vertex="1" parent="ctU_p67GkgNmKsGkajiW-212">
          <mxGeometry y="26" width="150" height="44" as="geometry" />
        </mxCell>
        <mxCell id="ctU_p67GkgNmKsGkajiW-214" style="edgeStyle=orthogonalEdgeStyle;rounded=0;orthogonalLoop=1;jettySize=auto;html=1;entryX=-0.018;entryY=0.249;entryDx=0;entryDy=0;entryPerimeter=0;" edge="1" parent="1" source="ctU_p67GkgNmKsGkajiW-176" target="ctU_p67GkgNmKsGkajiW-212">
          <mxGeometry relative="1" as="geometry" />
        </mxCell>
        <mxCell id="ctU_p67GkgNmKsGkajiW-217" style="edgeStyle=orthogonalEdgeStyle;rounded=0;orthogonalLoop=1;jettySize=auto;html=1;entryX=0.404;entryY=0.986;entryDx=0;entryDy=0;entryPerimeter=0;" edge="1" parent="1" source="ctU_p67GkgNmKsGkajiW-212" target="ctU_p67GkgNmKsGkajiW-194">
          <mxGeometry relative="1" as="geometry" />
        </mxCell>
        <mxCell id="ctU_p67GkgNmKsGkajiW-219" style="edgeStyle=orthogonalEdgeStyle;rounded=0;orthogonalLoop=1;jettySize=auto;html=1;entryX=0.435;entryY=-0.051;entryDx=0;entryDy=0;entryPerimeter=0;" edge="1" parent="1" source="ctU_p67GkgNmKsGkajiW-169" target="ctU_p67GkgNmKsGkajiW-208">
          <mxGeometry relative="1" as="geometry" />
        </mxCell>
        <mxCell id="ctU_p67GkgNmKsGkajiW-220" style="edgeStyle=orthogonalEdgeStyle;rounded=0;orthogonalLoop=1;jettySize=auto;html=1;entryX=0.63;entryY=0.037;entryDx=0;entryDy=0;entryPerimeter=0;" edge="1" parent="1" source="ctU_p67GkgNmKsGkajiW-208" target="ctU_p67GkgNmKsGkajiW-193">
          <mxGeometry relative="1" as="geometry" />
        </mxCell>
        <mxCell id="ctU_p67GkgNmKsGkajiW-221" value="«uses»" style="text;html=1;align=center;verticalAlign=middle;whiteSpace=wrap;rounded=0;" vertex="1" parent="1">
          <mxGeometry x="733" y="-630" width="60" height="30" as="geometry" />
        </mxCell>
        <mxCell id="ctU_p67GkgNmKsGkajiW-222" value="«uses»" style="text;html=1;align=center;verticalAlign=middle;whiteSpace=wrap;rounded=0;" vertex="1" parent="1">
          <mxGeometry x="1023" y="-619" width="60" height="30" as="geometry" />
        </mxCell>
        <mxCell id="ctU_p67GkgNmKsGkajiW-223" value="«uses»" style="text;html=1;align=center;verticalAlign=middle;whiteSpace=wrap;rounded=0;" vertex="1" parent="1">
          <mxGeometry x="753" y="-539" width="60" height="30" as="geometry" />
        </mxCell>
        <mxCell id="ctU_p67GkgNmKsGkajiW-224" value="«uses»" style="text;html=1;align=center;verticalAlign=middle;whiteSpace=wrap;rounded=0;" vertex="1" parent="1">
          <mxGeometry x="953" y="-419" width="60" height="30" as="geometry" />
        </mxCell>
        <mxCell id="ctU_p67GkgNmKsGkajiW-225" value="«uses»" style="text;html=1;align=center;verticalAlign=middle;whiteSpace=wrap;rounded=0;" vertex="1" parent="1">
          <mxGeometry x="1033" y="-533" width="60" height="30" as="geometry" />
        </mxCell>
        <mxCell id="ctU_p67GkgNmKsGkajiW-226" value="«uses»" style="text;html=1;align=center;verticalAlign=middle;whiteSpace=wrap;rounded=0;" vertex="1" parent="1">
          <mxGeometry x="1038" y="-353" width="60" height="30" as="geometry" />
        </mxCell>
        <mxCell id="ctU_p67GkgNmKsGkajiW-227" value="«uses»" style="text;html=1;align=center;verticalAlign=middle;whiteSpace=wrap;rounded=0;" vertex="1" parent="1">
          <mxGeometry x="1263" y="-533" width="60" height="30" as="geometry" />
        </mxCell>
        <mxCell id="ctU_p67GkgNmKsGkajiW-228" value="«creates»" style="text;html=1;align=center;verticalAlign=middle;whiteSpace=wrap;rounded=0;" vertex="1" parent="1">
          <mxGeometry x="693" y="-339" width="60" height="30" as="geometry" />
        </mxCell>
        <mxCell id="ctU_p67GkgNmKsGkajiW-229" value="«creates»" style="text;html=1;align=center;verticalAlign=middle;whiteSpace=wrap;rounded=0;" vertex="1" parent="1">
          <mxGeometry x="1263" y="-305" width="60" height="30" as="geometry" />
        </mxCell>
        <mxCell id="ctU_p67GkgNmKsGkajiW-230" value="«creates»" style="text;html=1;align=center;verticalAlign=middle;whiteSpace=wrap;rounded=0;" vertex="1" parent="1">
          <mxGeometry x="1413" y="-549" width="60" height="30" as="geometry" />
        </mxCell>
      </root>
    </mxGraphModel>
  </diagram>
</mxfile>
